# xmcd
#
# Track frame offsets: 
#        150
#        15368
#        32656
#        49183
#        66954
#        80982
#        98303
#        116428
#        136465
#        151746
#        170233
#
# Disc length: 2488 seconds
#
# Revision: 0
# Processed by: cddbd v1.4PL0 Copyright (c) Steve Scherf et al.
# Submitted via: ExactAudioCopy v0.90b3
#
DISCID=8709b60b
DTITLE=The Cruzeros - The Cruzeros
DYEAR=1996
DGENRE=Country
TTITLE0=Landslide
TTITLE1=Am I Invisible
TTITLE2=Into Your Eyes
TTITLE3=The Last Time
TTITLE4=Take You By The Heart
TTITLE5=The Trouble With Love
TTITLE6=Old Faithful
TTITLE7=Rescue Me
TTITLE8=Play That Old Steel
TTITLE9=Can You Imagine
TTITLE10=A Tu Corazon
EXTD=
EXTT0=
EXTT1=
EXTT2=
EXTT3=
EXTT4=
EXTT5=
EXTT6=
EXTT7=
EXTT8=
EXTT9=
EXTT10=
PLAYORDER=
